<svg width="20" height="20" viewBox="0 0 20 20" fill="none" xmlns="http://www.w3.org/2000/svg">
  <path fill-rule="evenodd" clip-rule="evenodd" d="M9.70679 16.707C9.51926 16.8945 9.26495 16.9998 8.99979 16.9998C8.73462 16.9998 8.48031 16.8945 8.29279 16.707L2.29279 10.707C2.10532 10.5195 2 10.2651 2 9.99998C2 9.73482 2.10532 9.48051 2.29279 9.29298L8.29279 3.29298C8.48139 3.11082 8.73399 3.01003 8.99619 3.01231C9.25838 3.01458 9.5092 3.11975 9.6946 3.30516C9.88001 3.49057 9.98518 3.74138 9.98746 4.00358C9.98974 4.26578 9.88894 4.51838 9.70679 4.70698L5.41379 8.99998H16.9998C17.265 8.99998 17.5194 9.10534 17.7069 9.29287C17.8944 9.48041 17.9998 9.73476 17.9998 9.99998C17.9998 10.2652 17.8944 10.5196 17.7069 10.7071C17.5194 10.8946 17.265 11 16.9998 11H5.41379L9.70679 15.293C9.89426 15.4805 9.99957 15.7348 9.99957 16C9.99957 16.2651 9.89426 16.5195 9.70679 16.707Z" fill="#013B2B"/>
  </svg>
  