<svg width="20" height="20" viewBox="0 0 20 20" fill="none" xmlns="http://www.w3.org/2000/svg">
  <path fill-rule="evenodd" clip-rule="evenodd" d="M16.7074 5.29303C16.8949 5.48056 17.0002 5.73487 17.0002 6.00003C17.0002 6.26519 16.8949 6.5195 16.7074 6.70703L8.70741 14.707C8.51988 14.8945 8.26557 14.9998 8.00041 14.9998C7.73524 14.9998 7.48094 14.8945 7.29341 14.707L3.29341 10.707C3.11125 10.5184 3.01045 10.2658 3.01273 10.0036C3.01501 9.74143 3.12018 9.49062 3.30559 9.30521C3.491 9.1198 3.74181 9.01464 4.00401 9.01236C4.2662 9.01008 4.5188 9.11087 4.70741 9.29303L8.00041 12.586L15.2934 5.29303C15.4809 5.10556 15.7352 5.00024 16.0004 5.00024C16.2656 5.00024 16.5199 5.10556 16.7074 5.29303Z" fill="white"/>
  </svg>
  