<svg width="24" height="24" viewBox="0 0 24 24" fill="none" xmlns="http://www.w3.org/2000/svg">
  <path d="M20.4859 3.51492C18.3137 1.34198 15.3114 0 12.0033 0C8.68866 0 5.68612 1.34198 3.51413 3.51492C1.34836 5.68781 0 8.68439 0 12C0 15.3155 1.34836 18.3121 3.51413 20.4849C5.68612 22.6576 8.68866 24 12.0033 24C15.3113 24 18.3137 22.6576 20.4859 20.4849C22.6515 18.3121 24 15.3155 24 12C24 8.68439 22.6515 5.68781 20.4859 3.51492Z" fill="#43A047"/>
  <path fill-rule="evenodd" clip-rule="evenodd" d="M17.8489 8.64433C17.8687 8.61784 17.8687 8.57786 17.8489 8.53136C17.2509 7.5414 16.4075 6.71096 15.4177 6.12615C14.3813 5.52812 13.199 5.20923 12.0034 5.20923C9.93069 5.20923 7.99123 6.14589 6.69574 7.76734C6.66917 7.80723 6.66917 7.84712 6.68913 7.88687L8.59568 11.2025C8.61556 11.229 8.6554 11.2489 8.69515 11.2489H8.70828C8.74831 11.2489 8.78801 11.2225 8.80137 11.1693C9.18017 9.71411 10.4954 8.69753 12.0033 8.69753C12.0896 8.69753 12.1959 8.69753 12.289 8.71079C12.2955 8.71079 12.2955 8.71079 12.2955 8.71079H17.7426C17.7824 8.71084 17.8223 8.69097 17.8489 8.64433ZM13.0064 15.2224C12.9732 15.1891 12.9333 15.1694 12.8934 15.1827C12.6079 15.2624 12.309 15.3023 12.0034 15.3023C10.7278 15.3023 9.55217 14.558 9.00757 13.3953L6.27724 8.66434C6.25751 8.63786 6.22413 8.61784 6.18429 8.61784C6.1444 8.61784 6.1047 8.63786 6.08468 8.66434C5.52016 9.68101 5.21454 10.8303 5.21454 11.9999C5.21454 13.6345 5.80577 15.2092 6.87528 16.4517C7.93793 17.6744 9.39284 18.4715 10.9936 18.7107C10.9936 18.7173 11.0067 18.7173 11.0067 18.7173C11.0467 18.7173 11.0866 18.6977 11.1066 18.6578L13.0129 15.3422C13.0327 15.3023 13.0327 15.2625 13.0064 15.2224ZM18.2275 9.44837H14.3881C14.3481 9.44837 14.3083 9.47495 14.2885 9.5215C14.275 9.56153 14.2885 9.60803 14.315 9.64103C14.9527 10.2655 15.3114 11.1095 15.3114 11.9999C15.3114 12.6777 15.1054 13.3222 14.7201 13.8804C14.7201 13.887 14.7201 13.887 14.7201 13.887L11.9768 18.6179C11.957 18.6578 11.957 18.6977 11.9768 18.7309C12.0034 18.7707 12.0433 18.7907 12.0831 18.7907C13.8766 18.7706 15.5574 18.0531 16.8326 16.7707C18.0947 15.5016 18.7923 13.794 18.7923 11.9999C18.7923 11.1427 18.6328 10.3056 18.3272 9.5215C18.3072 9.475 18.2675 9.44837 18.2275 9.44837ZM9.46592 11.9999C9.46592 13.3954 10.6083 14.5382 12.0034 14.5382C13.4049 14.5382 14.5409 13.3953 14.5409 11.9999C14.5409 10.5978 13.4049 9.45489 12.0034 9.45489C10.6083 9.45489 9.46592 10.5978 9.46592 11.9999Z" fill="white"/>
  </svg>
  