<svg width="24" height="24" viewBox="0 0 24 24" fill="none" xmlns="http://www.w3.org/2000/svg">
  <path d="M12 24C5.3736 24 0 18.6264 0 12C0 5.3736 5.3736 0 12 0C18.6264 0 24 5.3736 24 12C24 18.6264 18.6264 24 12 24Z" fill="url(#paint0_linear_417_19376)"/>
  <path d="M12.0003 5.28484C14.1867 5.28484 14.4459 5.29204 15.3099 5.33284C16.1091 5.36884 16.5435 5.50324 16.8315 5.61604C17.2131 5.76484 17.4867 5.94244 17.7723 6.22804C18.0579 6.51364 18.2355 6.78724 18.3843 7.16884C18.4971 7.45683 18.6291 7.89123 18.6675 8.69043C18.7059 9.55443 18.7155 9.81363 18.7155 12C18.7155 14.1864 18.7083 14.4456 18.6675 15.3096C18.6315 16.1088 18.4971 16.5432 18.3843 16.8312C18.2355 17.2128 18.0579 17.4864 17.7723 17.772C17.4867 18.0576 17.2131 18.2352 16.8315 18.384C16.5435 18.4968 16.1091 18.6288 15.3099 18.6672C14.4459 18.7056 14.1867 18.7152 12.0003 18.7152C9.81385 18.7152 9.55465 18.708 8.69065 18.6672C7.89145 18.6312 7.45705 18.4968 7.16905 18.384C6.78745 18.2352 6.51385 18.0576 6.22824 17.772C5.94264 17.4864 5.76504 17.2128 5.61624 16.8312C5.50344 16.5432 5.37144 16.1088 5.33304 15.3096C5.29464 14.4456 5.28504 14.1864 5.28504 12C5.28504 9.81363 5.29224 9.55443 5.33304 8.69043C5.36904 7.89123 5.50344 7.45683 5.61624 7.16884C5.76504 6.78724 5.94264 6.51364 6.22824 6.22804C6.51385 5.94244 6.78745 5.76484 7.16905 5.61604C7.45705 5.50324 7.89145 5.37124 8.69065 5.33284C9.55465 5.29204 9.81385 5.28484 12.0003 5.28484ZM12.0003 3.80884C9.77545 3.80884 9.49705 3.81844 8.62345 3.85924C7.75225 3.90004 7.15705 4.03684 6.63385 4.24084C6.09624 4.44724 5.63784 4.72804 5.18424 5.18404C4.72824 5.64004 4.44984 6.09604 4.23864 6.63604C4.03704 7.15683 3.89784 7.75203 3.85704 8.62563C3.81624 9.49923 3.80664 9.77763 3.80664 12.0024C3.80664 14.2272 3.81624 14.5056 3.85704 15.3792C3.89784 16.2504 4.03464 16.8456 4.23864 17.3688C4.44744 17.904 4.72824 18.3624 5.18424 18.816C5.64024 19.272 6.09624 19.5504 6.63625 19.7616C7.15705 19.9632 7.75225 20.1024 8.62585 20.1432C9.49945 20.184 9.77785 20.1936 12.0027 20.1936C14.2275 20.1936 14.5059 20.184 15.3795 20.1432C16.2507 20.1024 16.8459 19.9656 17.3691 19.7616C17.9043 19.5528 18.3627 19.272 18.8163 18.816C19.2723 18.36 19.5507 17.904 19.7619 17.364C19.9635 16.8432 20.1027 16.248 20.1435 15.3744C20.1843 14.5008 20.1939 14.2224 20.1939 11.9976C20.1939 9.77283 20.1843 9.49443 20.1435 8.62083C20.1027 7.74963 19.9659 7.15443 19.7619 6.63124C19.5531 6.09604 19.2723 5.63764 18.8163 5.18404C18.3603 4.72804 17.9043 4.44964 17.3643 4.23844C16.8435 4.03684 16.2483 3.89764 15.3747 3.85684C14.5035 3.81844 14.2251 3.80884 12.0003 3.80884Z" fill="white"/>
  <path d="M12.0002 7.79285C9.67697 7.79285 7.79297 9.67685 7.79297 12C7.79297 14.3232 9.67697 16.2072 12.0002 16.2072C14.3234 16.2072 16.2074 14.3232 16.2074 12C16.2074 9.67685 14.3234 7.79285 12.0002 7.79285ZM12.0002 14.7312C10.493 14.7312 9.26897 13.5096 9.26897 12C9.26897 10.4904 10.493 9.26885 12.0002 9.26885C13.5074 9.26885 14.7314 10.4904 14.7314 12C14.7314 13.5096 13.5074 14.7312 12.0002 14.7312Z" fill="white"/>
  <path d="M16.3732 8.61119C16.9166 8.61119 17.3572 8.17064 17.3572 7.62719C17.3572 7.08374 16.9166 6.64319 16.3732 6.64319C15.8297 6.64319 15.3892 7.08374 15.3892 7.62719C15.3892 8.17064 15.8297 8.61119 16.3732 8.61119Z" fill="white"/>
  <defs>
  <linearGradient id="paint0_linear_417_19376" x1="3.51472" y1="20.4853" x2="20.4853" y2="3.51472" gradientUnits="userSpaceOnUse">
  <stop stop-color="#FFD521"/>
  <stop offset="0.0551048" stop-color="#FFD020"/>
  <stop offset="0.1241" stop-color="#FEC01E"/>
  <stop offset="0.2004" stop-color="#FCA71B"/>
  <stop offset="0.2821" stop-color="#FA8316"/>
  <stop offset="0.3681" stop-color="#F85510"/>
  <stop offset="0.4563" stop-color="#F51E09"/>
  <stop offset="0.5" stop-color="#F30005"/>
  <stop offset="0.5035" stop-color="#F20007"/>
  <stop offset="0.5966" stop-color="#E1003B"/>
  <stop offset="0.6879" stop-color="#D30067"/>
  <stop offset="0.7757" stop-color="#C70088"/>
  <stop offset="0.8589" stop-color="#BF00A0"/>
  <stop offset="0.9357" stop-color="#BB00AF"/>
  <stop offset="1" stop-color="#B900B4"/>
  </linearGradient>
  </defs>
  </svg>
  