<svg width="20" height="20" viewBox="0 0 20 20" fill="none" xmlns="http://www.w3.org/2000/svg">
  <path d="M10 8.33332C10.9167 8.33332 11.6667 7.58332 11.6667 6.66666V3.33332C11.6667 2.41666 10.9167 1.66666 10 1.66666C9.08337 1.66666 8.33337 2.41666 8.33337 3.33332V6.66666C8.33337 7.58332 9.08337 8.33332 10 8.33332Z" fill="white"/>
  <path d="M15.9167 4.08333C15.6667 3.83333 15.4167 3.75 15 3.75C14.3334 3.75 13.75 4.33333 13.75 5C13.75 5.33333 13.9167 5.66667 14.0834 5.91667C15.1667 7 15.75 8.41667 15.75 10C15.75 13.25 13.1667 15.8333 9.91669 15.8333C6.66669 15.8333 4.08335 13.25 4.08335 10C4.08335 8.41667 4.75002 6.91667 5.83335 5.91667C6.08335 5.66667 6.25002 5.33333 6.25002 5C6.25002 4.33333 5.66669 3.75 5.00002 3.75C4.66669 3.75 4.33335 3.91667 4.08335 4.08333C2.58335 5.58333 1.66669 7.66667 1.66669 10C1.66669 14.5833 5.41669 18.3333 10 18.3333C14.5834 18.3333 18.3334 14.5833 18.3334 10C18.3334 7.66667 17.4167 5.58333 15.9167 4.08333Z" fill="white"/>
  </svg>
  