<svg width="32" height="32" viewBox="0 0 32 32" fill="none" xmlns="http://www.w3.org/2000/svg">
  <path d="M15.9998 0.115417C7.22696 0.115417 0.115234 7.22715 0.115234 16C0.115234 24.7729 7.22696 31.8846 15.9998 31.8846C24.7727 31.8846 31.8845 24.7729 31.8845 16C31.8845 7.22715 24.7727 0.115417 15.9998 0.115417ZM17.4645 26.1022C17.0409 26.5169 16.4782 26.7242 15.7764 26.7242C15.0746 26.7242 14.507 26.5169 14.0735 26.1022C13.6503 25.6876 13.4386 25.1624 13.4381 24.5266C13.4381 23.8804 13.6546 23.3502 14.0876 22.9361C14.5305 22.5121 15.0934 22.2998 15.7764 22.2994C16.4594 22.2989 17.0173 22.5112 17.4503 22.9361C17.8923 23.3498 18.1135 23.8799 18.114 24.5266C18.114 25.1628 17.8975 25.6881 17.4645 26.1022ZM21.9525 13.2054C21.5873 13.9283 20.9476 14.7331 20.0336 15.6197L18.8645 16.733C18.1335 17.4371 17.715 18.2611 17.6092 19.2052C17.5939 19.4446 17.488 19.6692 17.3129 19.8331C17.1378 19.9971 16.9068 20.0881 16.6669 20.0876H15.7643C14.7109 20.0876 13.8238 19.2268 13.9927 18.1869C14.0607 17.7336 14.1797 17.2894 14.3474 16.8629C14.6746 16.0633 15.2711 15.278 16.1372 14.5071C17.0122 13.7264 17.5942 13.095 17.8831 12.6131C18.1649 12.1458 18.3146 11.6108 18.3159 11.065C18.3159 9.43619 17.5654 8.62176 16.0645 8.62176C15.3528 8.62176 14.7804 8.84341 14.3474 9.28676C13.5808 10.0722 12.8081 11.094 11.711 11.094H11.6282C10.4557 11.094 9.45485 10.1113 9.82168 8.99734C10.0989 8.13923 10.6001 7.37058 11.2735 6.7708C12.4473 5.73022 14.0444 5.20971 16.0645 5.20926C18.1048 5.20926 19.6874 5.70579 20.8123 6.69878C21.9386 7.68195 22.5016 9.07474 22.5011 10.8772C22.5035 11.6856 22.3156 12.4832 21.9525 13.2054Z" fill="#675B53"/>
  </svg>
  