<svg width="24" height="24" viewBox="0 0 24 24" fill="none" xmlns="http://www.w3.org/2000/svg">
  <path d="M12 24C18.6274 24 24 18.6274 24 12C24 5.37258 18.6274 0 12 0C5.37258 0 0 5.37258 0 12C0 18.6274 5.37258 24 12 24Z" fill="#1DA1F2"/>
  <path d="M9.80399 18.3301C15.126 18.3301 18.036 13.9201 18.036 10.0981C18.036 9.97212 18.036 9.84612 18.03 9.72612C18.594 9.31812 19.086 8.80812 19.476 8.22612C18.96 8.45412 18.402 8.61012 17.814 8.68212C18.414 8.32212 18.87 7.75812 19.086 7.08012C18.528 7.41012 17.91 7.65012 17.25 7.78212C16.722 7.21812 15.972 6.87012 15.138 6.87012C13.542 6.87012 12.246 8.16612 12.246 9.76212C12.246 9.99012 12.27 10.2121 12.324 10.4221C9.91799 10.3021 7.78799 9.15012 6.35999 7.39812C6.11399 7.82412 5.96999 8.32212 5.96999 8.85012C5.96999 9.85212 6.47999 10.7401 7.25999 11.2561C6.78599 11.2441 6.34199 11.1121 5.95199 10.8961V10.9321C5.95199 12.3361 6.94799 13.5001 8.27399 13.7701C8.03399 13.8361 7.77599 13.8721 7.51199 13.8721C7.32599 13.8721 7.14599 13.8541 6.96599 13.8181C7.33199 14.9701 8.39999 15.8041 9.66599 15.8281C8.67599 16.6021 7.42799 17.0641 6.07199 17.0641C5.83799 17.0641 5.60999 17.0521 5.38199 17.0221C6.64799 17.8501 8.17199 18.3301 9.80399 18.3301Z" fill="white"/>
  </svg>
  