<svg width="24" height="24" viewBox="0 0 24 24" fill="none" xmlns="http://www.w3.org/2000/svg">
  <path d="M12 24C5.3736 24 0 18.6264 0 12C0 5.3736 5.3736 0 12 0C18.6264 0 24 5.3736 24 12C24 18.6264 18.6264 24 12 24Z" fill="#5181B8"/>
  <path fill-rule="evenodd" clip-rule="evenodd" d="M19.656 8.26796C19.7664 7.89596 19.656 7.62476 19.1256 7.62476H17.376C16.932 7.62476 16.7256 7.85996 16.6152 8.11916C16.6152 8.11916 15.7248 10.2888 14.4648 11.6976C14.0568 12.1056 13.872 12.2352 13.6488 12.2352C13.5384 12.2352 13.3776 12.1056 13.3776 11.7336V8.26796C13.3776 7.82396 13.248 7.62476 12.8784 7.62476H10.128C9.84962 7.62476 9.68161 7.83116 9.68161 8.02796C9.68161 8.45036 10.3128 8.54636 10.3776 9.73436V12.312C10.3776 12.876 10.2744 12.9792 10.0536 12.9792C9.46081 12.9792 8.01841 10.8 7.16161 8.30636C6.99361 7.82156 6.82561 7.62716 6.37921 7.62716H4.6296C4.1304 7.62716 4.0296 7.86236 4.0296 8.12156C4.0296 8.58476 4.6224 10.884 6.79201 13.9248C8.23921 16.0008 10.2744 17.1264 12.1296 17.1264C13.2408 17.1264 13.38 16.8768 13.38 16.4448V14.8752C13.38 14.376 13.4856 14.2752 13.8384 14.2752C14.0976 14.2752 14.544 14.4048 15.5808 15.4056C16.7664 16.5912 16.9632 17.124 17.6304 17.124H19.38C19.8792 17.124 20.1288 16.8744 19.9848 16.38C19.8264 15.888 19.26 15.1752 18.5088 14.328C18.1008 13.8456 17.4888 13.3272 17.304 13.068C17.0448 12.7344 17.1192 12.5856 17.304 12.2904C17.3016 12.2904 19.4328 9.28796 19.656 8.26796Z" fill="white"/>
  </svg>
  