<svg width="129" height="129" viewBox="0 0 129 129" fill="none" xmlns="http://www.w3.org/2000/svg">
<circle cx="64.5" cy="64.5" r="64.5" fill="#DFDFDF"/>
<g clip-path="url(#clip0_87_5373)">
<path d="M52.9115 90.4585C52.959 91.0852 53.0272 91.6711 53.0272 92.3127C53.0272 99.2213 50.2589 105.31 45.9584 109H60.7917H68.2084H83.0417C78.74 105.31 75.9736 99.2213 75.9736 92.3127C75.9736 91.6711 76.0404 91.0852 76.0886 90.4585H68.2084H60.7917H52.9115Z" fill="#95A5A6"/>
<path d="M52.9114 90.4585C52.9589 90.8293 53.0271 91.571 53.0271 92.3127C53.0271 94.1668 52.8558 96.021 52.4479 97.8752H76.552C76.1441 96.021 75.9735 94.1668 75.9735 92.3127C75.9735 91.571 76.0403 90.8293 76.0885 90.4585H68.2083H60.7916H52.9114Z" fill="#7F8C8D"/>
<path d="M23.7083 31.125C21.6603 31.125 20 32.6083 20 34.8333V38.5417V45.9583V53.375V60.7917V64.5V68.2083V71.9167V79.3333V86.75V90.4583C20 92.3125 21.6603 94.1667 23.7083 94.1667H27.4167H75.625H97.875H101.583H105.292C107.339 94.1667 109 92.3125 109 90.4583V86.75V60.7917V57.0833V53.375V45.9583V38.5417V34.8333C109 32.6083 107.339 31.125 105.292 31.125H101.583H83.0417H79.3333H45.9583H31.125H27.4167H23.7083Z" fill="#BDC3C7"/>
<path d="M105.292 34.8335H23.7084V86.7502H105.292V34.8335Z" fill="#9D9D9D"/>
</g>
<defs>
<clipPath id="clip0_87_5373">
<rect width="89" height="89" fill="white" transform="translate(20 20)"/>
</clipPath>
</defs>
</svg>
