<svg width="77" height="72" viewBox="0 0 77 72" fill="none" xmlns="http://www.w3.org/2000/svg">
  <g clip-path="url(#clip0_208_9071)">
  <path opacity="0.39" d="M72.2662 65.621L72.2665 65.6208C73.7475 64.7221 74.9669 63.7373 75.7685 62.4233C76.567 61.1144 76.9658 59.4538 76.7589 57.1756C76.3622 52.7869 74.3765 48.8137 72.2999 44.8013C72.2184 44.6438 72.1367 44.4863 72.055 44.3286C70.0633 40.4854 68.0447 36.5902 67.4079 32.3033L67.4078 32.3031C67.0705 30.0242 67.1404 27.7247 67.2422 25.4442C67.2514 25.2376 67.2609 25.0312 67.2704 24.825C67.3658 22.7475 67.4605 20.6883 67.2806 18.6448M72.2662 65.621L67.5296 18.6229M72.2662 65.621C71.3098 66.2029 70.2519 66.7407 69.1349 67.3085C68.9512 67.4019 68.7659 67.4961 68.5792 67.5915L68.5786 67.5918M72.2662 65.621L68.5786 67.5918M67.2806 18.6448L67.5296 18.6229M67.2806 18.6448C67.2806 18.6448 67.2806 18.6449 67.2806 18.6449L67.5296 18.6229M67.2806 18.6448C66.9426 14.8306 65.6572 11.1639 63.5433 7.98309M67.5296 18.6229C67.188 14.7672 65.8886 11.0604 63.7514 7.84468M63.5433 7.98309L63.7514 7.84468M63.5433 7.98309C60.4841 3.38184 56.5412 0.887238 51.0912 0.362189L63.7514 7.84468M63.5433 7.98309C63.5433 7.98308 63.5432 7.98307 63.5432 7.98305L63.7514 7.84468M68.5786 67.5918C63.61 70.1446 57.8071 70.4257 52.2668 70.6376L25.7781 71.6576C21.3069 71.828 16.7362 71.9635 12.6887 70.2311C10.3559 69.2038 8.29043 67.6456 6.65432 65.6785L6.65252 65.6763M68.5786 67.5918L6.65252 65.6763M6.65252 65.6763C4.02633 62.5895 2.27311 58.6002 1.38829 54.5833M6.65252 65.6763L1.38829 54.5833M1.38829 54.5833C0.272508 49.5128 0.288623 44.3024 0.304815 39.0672C0.309667 37.4984 0.314526 35.9274 0.288938 34.3573L1.38829 54.5833ZM35.284 3.5614C40.1463 1.13797 45.6759 -0.155796 51.091 0.362173L0.288937 34.3573C0.277786 33.6658 0.260725 32.9748 0.243686 32.2847C0.16297 29.0157 0.0827559 25.7671 0.633733 22.5774C1.3 18.7202 3.01542 14.911 6.10838 12.6323C8.18927 11.1003 10.6003 10.4032 13.1279 10.0092C14.3918 9.81216 15.6798 9.69158 16.9679 9.5788C17.1078 9.56656 17.2477 9.5544 17.3875 9.54225C18.5331 9.44271 19.6769 9.34333 20.7911 9.19564C25.3982 8.58505 29.4343 6.53165 33.4692 4.47888C34.0735 4.17142 34.6778 3.86398 35.284 3.5614Z" fill="#E5F2C2" stroke="black" stroke-width="0.5"/>
  <path d="M37.4668 25.1641C37.4668 25.1641 33.7467 29.6446 36.2268 33.4848C38.7069 37.3249 43.107 40.181 44.7816 43.0861C46.4562 45.9913 43.4179 49.142 42.3633 49.7314C41.3087 50.3207 31.7012 57.4627 37.6523 64.7974H57.7384C57.7384 64.7974 64.2477 58.1522 53.3982 50.1262C53.3982 50.1262 45.6489 46.1386 52.9019 40.4757C60.1548 34.8127 61.4567 29.4217 58.0175 25.2132L37.4668 25.1641Z" fill="#B0B0B0"/>
  <path opacity="0.41" d="M72.3961 65.8345C71.2722 66.5183 70.0096 67.1416 68.6928 67.8141C63.667 70.3962 57.8077 70.6758 52.2762 70.8873L25.7876 71.9074C21.3257 72.0774 16.6971 72.219 12.5892 70.4604C10.2203 69.4174 8.12309 67.8354 6.46201 65.8382L72.3961 65.8345Z" fill="#675B53"/>
  <path d="M59.1565 23.3301H35.9066C35.381 23.3301 34.955 23.7597 34.955 24.2896V24.2915C34.955 24.8215 35.381 25.2511 35.9066 25.2511H59.1565C59.682 25.2511 60.1081 24.8215 60.1081 24.2915V24.2896C60.1081 23.7597 59.682 23.3301 59.1565 23.3301Z" fill="#68E1FD"/>
  <path d="M59.1565 64.873H35.9066C35.381 64.873 34.955 65.3027 34.955 65.8326V65.8345C34.955 66.3645 35.381 66.7941 35.9066 66.7941H59.1565C59.682 66.7941 60.1081 66.3645 60.1081 65.8345V65.8326C60.1081 65.3027 59.682 64.873 59.1565 64.873Z" fill="#68E1FD"/>
  <path d="M59.1565 23.3301H35.9066C35.381 23.3301 34.955 23.7597 34.955 24.2896V24.2915C34.955 24.8215 35.381 25.2511 35.9066 25.2511H59.1565C59.682 25.2511 60.1081 24.8215 60.1081 24.2915V24.2896C60.1081 23.7597 59.682 23.3301 59.1565 23.3301Z" fill="#013B2B"/>
  <path d="M59.1565 64.873H35.9066C35.381 64.873 34.955 65.3027 34.955 65.8326V65.8345C34.955 66.3645 35.381 66.7941 35.9066 66.7941H59.1565C59.682 66.7941 60.1081 66.3645 60.1081 65.8345V65.8326C60.1081 65.3027 59.682 64.873 59.1565 64.873Z" fill="#013B2B"/>
  <path d="M56.0431 54.5954C52.6396 52.7631 41.378 52.459 39.2407 54.0287C41.2357 51.3653 43.9761 49.7975 43.9761 49.7975C46.6735 48.0975 49.7418 49.5746 49.7418 49.5746C49.7418 49.5746 53.6436 51.5882 56.0431 54.5954Z" fill="url(#paint0_linear_208_9071)"/>
  <path d="M55.972 64.6502H39.1396L38.4896 64.0608C36.5678 60.7439 37.0398 57.8142 38.3023 55.4833C38.5791 54.9792 38.8921 54.4962 39.2389 54.0382C41.3762 52.4591 52.6378 52.7632 56.0413 54.6049C56.3897 55.0385 56.7029 55.4996 56.9779 55.9838C57.1598 56.3038 57.3188 56.6365 57.4537 56.9793C59.1321 61.2539 55.972 64.6502 55.972 64.6502Z" fill="#FBD000"/>
  <path d="M56.9835 55.9743C56.18 58.9247 48.1665 54.4234 44.4332 54.0853C41.9681 53.8643 39.3644 55.3774 39.3644 55.3774C39.3644 55.3774 38.5234 55.6852 38.2986 55.4794C38.5754 54.9753 38.8884 54.4923 39.2352 54.0343C41.3725 52.4552 52.634 52.7593 56.0376 54.601C56.3889 55.0324 56.7053 55.4916 56.9835 55.9743Z" fill="#E4BD00"/>
  <path d="M39.2015 35.897C39.2015 35.897 44.9671 40.4757 45.3399 41.3616C45.7127 42.2475 48.7116 42.7651 49.6482 41.9774C50.5848 41.1897 52.9637 39.688 55.3202 36.2899C57.6767 32.8917 49.9273 35.1093 47.3236 35.6023C44.7199 36.0953 40.2561 32.8936 39.2015 35.897Z" fill="#FBD000"/>
  <path d="M39.2016 35.897C39.2016 35.897 41.4344 37.3741 43.4181 36.9302C45.4018 36.4863 46.7037 35.2075 49.431 35.4531C52.1584 35.6987 54.8857 36.8811 55.7549 35.6023C56.624 34.3235 55.6931 33.2865 52.9638 33.6322C50.2346 33.9778 45.7109 34.0251 43.5417 33.8777C41.3726 33.7304 37.4052 34.0761 39.2016 35.897Z" fill="#68E1FD"/>
  <path d="M39.2016 35.897C39.2016 35.897 41.4344 37.3741 43.4181 36.9302C45.4018 36.4863 46.7037 35.2075 49.431 35.4531C52.1584 35.6987 54.8857 36.8811 55.7549 35.6023C56.624 34.3235 55.6931 33.2865 52.9638 33.6322C50.2346 33.9778 45.7109 34.0251 43.5417 33.8777C41.3726 33.7304 37.4052 34.0761 39.2016 35.897Z" fill="#FBD000"/>
  <path d="M47.2636 43.513C47.1051 43.618 46.9761 43.7624 46.889 43.9323C46.8577 43.9845 46.8375 44.0427 46.8297 44.1032C46.822 44.1637 46.8269 44.2252 46.844 44.2837C46.8705 44.3478 46.9157 44.4024 46.9735 44.4401C47.0314 44.4779 47.0992 44.4971 47.1681 44.4952C47.2857 44.4839 47.3975 44.4387 47.4903 44.3649C47.6776 44.2421 47.8837 44.0853 47.8556 43.8945C47.8275 43.7037 47.5352 43.5677 47.2842 43.4922" fill="#FBD000"/>
  <path d="M48.309 45.2606C48.2458 45.2769 48.1866 45.3058 48.1347 45.3456C48.1085 45.3683 48.0935 45.3928 48.1141 45.4174C48.1566 45.4495 48.2092 45.4649 48.2621 45.4608C48.3123 45.4578 48.3619 45.4489 48.4101 45.4344C48.4963 45.4079 48.5974 45.3758 48.5768 45.3381C48.5562 45.3003 48.4307 45.2719 48.3164 45.2568" fill="#FBD000"/>
  <path d="M47.3012 45.8138C47.2381 45.8301 47.1788 45.859 47.127 45.8988C47.1008 45.9215 47.0876 45.948 47.1064 45.9706C47.1489 46.0027 47.2014 46.0181 47.2544 46.0141C47.3046 46.012 47.3544 46.0031 47.4024 45.9876C47.4885 45.9631 47.5897 45.9309 47.5709 45.8913C47.5522 45.8516 47.423 45.8252 47.3087 45.8101" fill="#FBD000"/>
  <path d="M48.9027 48.3922C48.8215 48.3573 48.7343 48.3387 48.6461 48.3374C48.5973 48.3374 48.5543 48.3487 48.543 48.3846C48.5442 48.4143 48.5522 48.4432 48.5666 48.4692C48.5809 48.4951 48.6011 48.5173 48.6255 48.5338C48.6743 48.5711 48.7287 48.6004 48.7865 48.6207C48.8933 48.6623 49.0132 48.7038 49.0488 48.6604C49.0844 48.617 48.9963 48.4923 48.912 48.3922" fill="#FBD000"/>
  <path d="M45.9281 51.7506C45.8475 51.7159 45.761 51.6973 45.6734 51.6958C45.6228 51.6958 45.5797 51.709 45.5704 51.743C45.561 51.777 45.5891 51.8413 45.6509 51.8923C45.7001 51.9301 45.7552 51.9594 45.8139 51.9792C45.9188 52.0207 46.0405 52.0623 46.0742 52.0188C46.1079 51.9754 46.0218 51.8507 45.9394 51.7506" fill="#FBD000"/>
  <path d="M57.7341 64.6544C57.7186 64.6718 57.7056 64.6862 57.6952 64.6974H37.7001C36.2499 62.8943 35.7508 61.1095 35.8294 59.4366C35.9086 57.7496 36.5758 56.1678 37.4647 54.7891C38.3535 53.4106 39.4608 52.2399 40.4126 51.3767C41.3657 50.5124 42.1576 49.9609 42.4121 49.8187C42.9579 49.5137 43.9936 48.5641 44.6833 47.3259C45.3744 46.0851 45.73 44.5313 44.8683 43.0362C44.0482 41.6135 42.5841 40.2062 41.024 38.7067C40.9746 38.6592 40.9251 38.6117 40.8756 38.564C39.255 37.0057 37.5436 35.3393 36.3108 33.4305C35.0956 31.5488 35.3955 29.5064 36.01 27.9205C36.3169 27.1284 36.7009 26.4545 37.0083 25.9784C37.162 25.7405 37.2963 25.5523 37.392 25.4238C37.4399 25.3596 37.4781 25.3103 37.5042 25.2773C37.5079 25.2726 37.5113 25.2682 37.5145 25.2642L57.9698 25.3131C59.6459 27.3842 60.1607 29.7367 59.3737 32.2693C58.5801 34.8235 56.459 37.5715 52.8403 40.3968C51.0169 41.8206 50.1233 43.1489 49.8226 44.3483C49.5212 45.5502 49.819 46.6068 50.3446 47.4763C50.8691 48.3438 51.6221 49.0282 52.2405 49.4945C52.5503 49.728 52.8275 49.9077 53.0275 50.0292C53.1276 50.09 53.2084 50.1362 53.2644 50.1674C53.2924 50.183 53.3142 50.1948 53.3291 50.2027L53.345 50.2112C58.7445 54.2077 59.8039 57.8424 59.5374 60.4614C59.4036 61.7758 58.9353 62.8434 58.4998 63.5829C58.2821 63.9526 58.073 64.2397 57.9186 64.434C57.8414 64.5311 57.778 64.605 57.7341 64.6544Z" fill="url(#paint1_linear_208_9071)" stroke="black" stroke-width="0.2"/>
  </g>
  <defs>
  <linearGradient id="paint0_linear_208_9071" x1="4645.79" y1="1597.9" x2="4632.4" y2="1797.45" gradientUnits="userSpaceOnUse">
  <stop offset="0.02" stop-color="white" stop-opacity="0"/>
  <stop offset="0.32" stop-color="white" stop-opacity="0.39"/>
  <stop offset="0.68" stop-color="white" stop-opacity="0.68"/>
  <stop offset="1" stop-color="white"/>
  </linearGradient>
  <linearGradient id="paint1_linear_208_9071" x1="35.3745" y1="44.9807" x2="59.8345" y2="44.9807" gradientUnits="userSpaceOnUse">
  <stop offset="0.02" stop-color="white" stop-opacity="0"/>
  <stop offset="0.32" stop-color="white" stop-opacity="0.39"/>
  <stop offset="0.68" stop-color="white" stop-opacity="0.68"/>
  <stop offset="1" stop-color="white"/>
  </linearGradient>
  <clipPath id="clip0_208_9071">
  <rect width="77" height="72" fill="white"/>
  </clipPath>
  </defs>
  </svg>
  