<svg width="169" height="19" viewBox="0 0 169 19" fill="none" xmlns="http://www.w3.org/2000/svg">
  <path d="M13.1562 12.3047C13.0234 13.4844 12.6211 14.5312 11.9492 15.4453C11.2773 16.3516 10.4023 17.0508 9.32422 17.543C8.24609 18.0273 7.08203 18.2578 5.83203 18.2344C4.70703 18.2109 3.72656 17.9531 2.89062 17.4609C2.05469 16.9609 1.39453 16.2422 0.910156 15.3047C0.433594 14.3594 0.164062 13.2734 0.101562 12.0469C0.046875 11.0859 0.144531 9.89062 0.394531 8.46094C0.652344 7.03125 1.10547 5.76172 1.75391 4.65234C2.41016 3.54297 3.1875 2.66406 4.08594 2.01562C5.35156 1.10938 6.79688 0.671875 8.42188 0.703125C10.1875 0.734375 11.5859 1.28125 12.6172 2.34375C13.6562 3.39844 14.2266 4.86719 14.3281 6.75L10.9062 6.73828C10.9062 5.66016 10.6914 4.87109 10.2617 4.37109C9.83203 3.87109 9.16406 3.60547 8.25781 3.57422C7.08594 3.53516 6.12109 3.95312 5.36328 4.82812C4.61328 5.70312 4.10938 6.98047 3.85156 8.66016C3.60156 10.293 3.49219 11.5156 3.52344 12.3281C3.5625 13.3594 3.79297 14.1211 4.21484 14.6133C4.63672 15.0977 5.22656 15.3516 5.98438 15.375C7.03125 15.4141 7.86719 15.168 8.49219 14.6367C9.125 14.0977 9.54297 13.3281 9.74609 12.3281L13.1562 12.3047ZM21.8516 8.60156L26.6211 0.9375H30.5586L23.1055 12L22.0742 18H18.582L19.6953 11.6133L16.1562 0.949219L19.7773 0.9375L21.8516 8.60156ZM29.1055 18L32.0703 0.9375L37.3906 0.949219C39.3672 0.957031 40.8516 1.35938 41.8438 2.15625C42.8359 2.95312 43.2852 4.07422 43.1914 5.51953C43.082 7.24609 42.0859 8.50781 40.2031 9.30469C40.8828 9.53906 41.4102 9.98047 41.7852 10.6289C42.1602 11.2695 42.3203 12.0273 42.2656 12.9023C42.1562 14.5117 41.5234 15.7656 40.3672 16.6641C39.2188 17.5547 37.6484 18 35.6562 18H29.1055ZM33.8398 10.5703L33.0312 15.1758L35.7383 15.1875C36.582 15.1875 37.2891 14.9805 37.8594 14.5664C38.4297 14.1445 38.7695 13.5781 38.8789 12.8672C38.9883 12.1641 38.8906 11.6172 38.5859 11.2266C38.2891 10.8281 37.7852 10.6133 37.0742 10.582L33.8398 10.5703ZM34.2617 8.08594L36.5938 8.10938C37.4609 8.09375 38.168 7.89062 38.7148 7.5C39.2695 7.10938 39.6016 6.56641 39.7109 5.87109C39.9062 4.49609 39.1836 3.80469 37.543 3.79688L35.0117 3.78516L34.2617 8.08594ZM55.3438 10.6055H48.8047L48.0078 15.1758H55.6953L55.2031 18H44.082L47.0469 0.9375H58.1445L57.6406 3.78516H49.9883L49.2734 7.85156H55.8359L55.3438 10.6055ZM64.6133 11.7539H61.8242L60.7344 18H57.3008L60.2656 0.9375L65.9141 0.949219C67.8047 0.949219 69.2578 1.39453 70.2734 2.28516C71.2969 3.17578 71.75 4.41406 71.6328 6C71.4688 8.34375 70.2188 9.97266 67.8828 10.8867L70.2852 17.8125V18H66.6289L64.6133 11.7539ZM62.3164 8.90625L64.8711 8.92969C65.7773 8.91406 66.5234 8.67188 67.1094 8.20312C67.7031 7.72656 68.0586 7.08203 68.1758 6.26953C68.2852 5.51172 68.1641 4.91797 67.8125 4.48828C67.4609 4.05859 66.9023 3.82813 66.1367 3.79688L63.207 3.78516L62.3164 8.90625ZM76.2031 15.1758H83.4453L82.9531 18H72.2773L75.2422 0.9375H78.6758L76.2031 15.1758ZM88.6602 18H85.2266L88.1797 0.9375H91.6133L88.6602 18ZM91.918 18L94.8828 0.9375L100.203 0.949219C102.18 0.957031 103.664 1.35938 104.656 2.15625C105.648 2.95312 106.098 4.07422 106.004 5.51953C105.895 7.24609 104.898 8.50781 103.016 9.30469C103.695 9.53906 104.223 9.98047 104.598 10.6289C104.973 11.2695 105.133 12.0273 105.078 12.9023C104.969 14.5117 104.336 15.7656 103.18 16.6641C102.031 17.5547 100.461 18 98.4688 18H91.918ZM96.6523 10.5703L95.8438 15.1758L98.5508 15.1875C99.3945 15.1875 100.102 14.9805 100.672 14.5664C101.242 14.1445 101.582 13.5781 101.691 12.8672C101.801 12.1641 101.703 11.6172 101.398 11.2266C101.102 10.8281 100.598 10.6133 99.8867 10.582L96.6523 10.5703ZM97.0742 8.08594L99.4062 8.10938C100.273 8.09375 100.98 7.89062 101.527 7.5C102.082 7.10938 102.414 6.56641 102.523 5.87109C102.719 4.49609 101.996 3.80469 100.355 3.79688L97.8242 3.78516L97.0742 8.08594ZM114.207 11.7539H111.418L110.328 18H106.895L109.859 0.9375L115.508 0.949219C117.398 0.949219 118.852 1.39453 119.867 2.28516C120.891 3.17578 121.344 4.41406 121.227 6C121.062 8.34375 119.812 9.97266 117.477 10.8867L119.879 17.8125V18H116.223L114.207 11.7539ZM111.91 8.90625L114.465 8.92969C115.371 8.91406 116.117 8.67188 116.703 8.20312C117.297 7.72656 117.652 7.08203 117.77 6.26953C117.879 5.51172 117.758 4.91797 117.406 4.48828C117.055 4.05859 116.496 3.82813 115.73 3.79688L112.801 3.78516L111.91 8.90625ZM131.902 14.4844H125.949L124.191 18H120.406L129.523 0.9375H132.699L135.945 18H132.441L131.902 14.4844ZM127.355 11.6367H131.469L130.508 5.28516L127.355 11.6367ZM144.98 11.7539H142.191L141.102 18H137.668L140.633 0.9375L146.281 0.949219C148.172 0.949219 149.625 1.39453 150.641 2.28516C151.664 3.17578 152.117 4.41406 152 6C151.836 8.34375 150.586 9.97266 148.25 10.8867L150.652 17.8125V18H146.996L144.98 11.7539ZM142.684 8.90625L145.238 8.92969C146.145 8.91406 146.891 8.67188 147.477 8.20312C148.07 7.72656 148.426 7.08203 148.543 6.26953C148.652 5.51172 148.531 4.91797 148.18 4.48828C147.828 4.05859 147.27 3.82813 146.504 3.79688L143.574 3.78516L142.684 8.90625ZM159.336 8.60156L164.105 0.9375H168.043L160.59 12L159.559 18H156.066L157.18 11.6133L153.641 0.949219L157.262 0.9375L159.336 8.60156Z" fill="white"/>
  </svg>
  