<svg width="50" height="50" viewBox="0 0 50 50" fill="none" xmlns="http://www.w3.org/2000/svg">
<g clip-path="url(#clip0_9_100)">
<path d="M17.9888 0.207367L21.6321 2.16019L11.6823 11.5735L2.90812 14.3425L-0.0111694 10.362" fill="#FFE8BC"/>
<path d="M4.25136 12.3383L0.868807 10.4042L17.9888 0.207382L17.586 -0.0264893L-0.0111694 10.3621V36.8924L3.82767 39.0861L5.29197 37.5519" fill="#68E1FD"/>
<path opacity="0.42" d="M4.25136 12.3383L0.868807 10.4042L17.9888 0.207382L17.586 -0.0264893L-0.0111694 10.3621V36.8924L3.82767 39.0861L5.29197 37.5519" fill="#1371A5"/>
<path d="M21.632 2.16019L3.82764 12.5885V39.0861L21.9137 28.2274L21.632 2.16019Z" fill="#68E1FD"/>
<path d="M4.50043 10.8485L5.58759 11.5408V17.1911L6.27668 16.3024L6.7609 16.852V10.8695L5.7459 10.1352L4.50043 10.8485Z" fill="#E85858"/>
<path d="M6.32092 39.3036C6.23478 39.3036 5.46655 38.9949 6.11373 38.4967C6.54305 38.1615 6.99242 37.853 7.4593 37.5729" fill="#E27825"/>
<path d="M6.32092 35.2085C6.32092 35.2085 6.9681 37.615 6.32092 38.899L15.1184 44.0956L23.8204 49.1542V45.4123" fill="#FFE8BC"/>
<path d="M6.02295 34.8343C6.04313 35.0011 6.06408 35.168 6.0858 35.3348L23.8134 45.4146V49.1566L6.10443 38.7727C6.10443 38.92 6.10443 39.0674 6.10443 39.2171L24.5071 49.9167V44.8183L6.02295 34.8343Z" fill="#E27825"/>
<path d="M6.12536 34.8998L24.4093 45.424L50.0637 30.2925L32.1731 19.9765C31.9025 19.8205 31.5955 19.7394 31.2834 19.7414C30.9714 19.7435 30.6655 19.8286 30.3969 19.9882L6.12303 34.4414C6.08359 34.4652 6.051 34.4989 6.02844 34.5392C6.00589 34.5795 5.99415 34.625 5.99439 34.6713C5.99462 34.7175 6.00682 34.7629 6.02978 34.8029C6.05274 34.843 6.08568 34.8764 6.12536 34.8998Z" fill="#FDBA45"/>
<path d="M24.5025 49.9143C24.5025 49.9143 50.1405 34.7454 50.0637 34.6729C49.9869 34.6004 50.0637 30.2832 50.0637 30.2832L24.414 45.4146L24.5025 49.9143Z" fill="#E27825"/>
<path d="M6.12305 34.4414C6.04791 34.4958 5.98517 34.5656 5.93901 34.6463C5.89284 34.7269 5.86432 34.8165 5.85533 34.9091C5.82507 35.2225 6.15797 35.3769 6.27437 35.44" fill="#FDBA45"/>
<path d="M4.49115 32.1378C4.40501 32.1378 3.63678 31.8291 4.28396 31.3309C4.71328 30.9957 5.16265 30.6872 5.62953 30.4071" fill="#9A433A"/>
<path d="M4.49115 28.038C4.49115 28.038 5.13833 30.4446 4.49115 31.7285L13.2886 36.9251L21.9906 41.9838V38.2418" fill="#FFE8BC"/>
<path d="M4.20013 27.6685C4.22031 27.8353 4.24126 28.0022 4.26299 28.169L21.9906 38.2488V41.9908L4.27696 31.6046C4.27696 31.7519 4.27696 31.8992 4.27696 32.0489L22.6797 42.7485V37.6525L4.20013 27.6685Z" fill="#9A433A"/>
<path d="M4.29793 27.734L22.5819 38.2582L48.2363 23.1267L30.3457 12.8107C30.0751 12.6547 29.7681 12.5736 29.456 12.5756C29.144 12.5777 28.8381 12.6628 28.5695 12.8224L4.29561 27.2733C4.25563 27.2969 4.22252 27.3307 4.1996 27.3713C4.17668 27.4118 4.16475 27.4577 4.16498 27.5043C4.16522 27.5509 4.17762 27.5967 4.20095 27.637C4.22427 27.6773 4.25772 27.7107 4.29793 27.734Z" fill="#F26250"/>
<path d="M22.675 42.7485C22.675 42.7485 48.313 27.5703 48.2362 27.5071C48.1594 27.444 48.2362 23.1174 48.2362 23.1174L22.5818 38.2488L22.675 42.7485Z" fill="#9A433A"/>
<path d="M4.29559 27.2733C4.22046 27.3276 4.15772 27.3975 4.11155 27.4781C4.06539 27.5588 4.03686 27.6484 4.02788 27.741C3.99761 28.0544 4.33051 28.2087 4.44691 28.2719" fill="#F26250"/>
<path d="M19.5555 38.6791L19.3693 42.0726L20.2748 41.3219L20.9663 43.0549L21.2456 39.5702L19.5555 38.6791Z" fill="#2AE400"/>
<path d="M36.1167 16.9315C36.1167 18.2536 36.0911 19.5789 36.0399 20.9073C36.0399 21.057 36.2727 21.057 36.2727 20.9073C36.327 19.5851 36.3526 18.2599 36.3495 16.9315C36.3495 16.9005 36.3373 16.8707 36.3154 16.8488C36.2936 16.8269 36.264 16.8145 36.2331 16.8145C36.2023 16.8145 36.1727 16.8269 36.1508 16.8488C36.129 16.8707 36.1167 16.9005 36.1167 16.9315Z" fill="#F26250"/>
</g>
<defs>
<clipPath id="clip0_9_100">
<rect width="50" height="50" fill="white"/>
</clipPath>
</defs>
</svg>
