<svg width="24" height="24" viewBox="0 0 24 24" fill="none" xmlns="http://www.w3.org/2000/svg">
  <path d="M11.9971 0.75293C5.79276 0.75293 0.747082 5.7986 0.74707 12.0029C0.747065 18.2073 5.79275 23.2529 11.9971 23.2529C18.2014 23.2529 23.2471 18.2073 23.2471 12.0029C23.2471 5.7986 18.2014 0.75293 11.9971 0.75293ZM11.9868 3.73682C12.0877 3.73503 12.1878 3.75361 12.2813 3.79142C12.3748 3.82924 12.4597 3.88552 12.531 3.9569C12.6022 4.02828 12.6583 4.1133 12.696 4.20687C12.7336 4.30043 12.752 4.40063 12.75 4.50146V11.25H17.9985C18.0984 11.2478 18.1978 11.2655 18.2907 11.3022C18.3837 11.3389 18.4684 11.3937 18.5399 11.4636C18.6113 11.5335 18.6681 11.6169 18.7068 11.709C18.7456 11.8011 18.7656 11.9001 18.7656 12C18.7656 12.0999 18.7456 12.1989 18.7068 12.291C18.6681 12.3831 18.6113 12.4665 18.5399 12.5364C18.4684 12.6062 18.3837 12.6611 18.2907 12.6978C18.1978 12.7345 18.0984 12.7522 17.9985 12.75H11.9971C11.7992 12.7492 11.6096 12.6702 11.4697 12.5303C11.3298 12.3904 11.2508 12.2008 11.25 12.0029V4.50146C11.2481 4.40285 11.2656 4.30482 11.3016 4.21299C11.3376 4.12117 11.3914 4.03734 11.4598 3.96631C11.5282 3.89529 11.61 3.83846 11.7005 3.79908C11.7909 3.7597 11.8882 3.73854 11.9868 3.73682Z" fill="white"/>
  </svg>
  